<svg width="634" height="439" viewBox="0 0 634 439" fill="none" xmlns="http://www.w3.org/2000/svg">
<path d="M382.821 59.1836C347.997 83.6097 307.306 88.4348 160.345 43.5412C65.821 14.663 0.115567 89.2651 0.000293942 187.632C-0.0573424 236.46 8.35757 283.712 28.3228 324.526C52.1727 373.234 151.284 472.96 166.108 387.673C227.203 36.3217 239.883 292.616 304.435 287.803C348.147 284.542 357.461 -20.2315 460.053 402.112C487.961 517.012 634 314.419 634 187.632C634 140.74 626.369 95.3054 607.81 55.7182C561.493 -43.0935 453.137 9.84996 382.821 59.1836Z" fill="white"/>
<mask id="mask0_2_109" style="mask-type:alpha" maskUnits="userSpaceOnUse" x="0" y="2" width="634" height="437">
<path d="M382.821 61.1836C347.997 85.6097 307.306 90.4348 160.345 45.5412C65.821 16.663 0.115567 91.2651 0.000293942 189.632C-0.0573424 238.46 8.35757 285.712 28.3228 326.526C52.1727 375.234 151.284 474.96 166.108 389.673C227.203 38.3217 239.883 294.616 304.435 289.803C348.147 286.542 357.461 -18.2315 460.053 404.112C487.961 519.012 634 316.419 634 189.632C634 142.74 626.369 97.3054 607.81 57.7182C561.493 -41.0935 453.137 11.85 382.821 61.1836Z" fill="white"/>
</mask>
<g mask="url(#mask0_2_109)">
</g>
<ellipse cx="262" cy="341.152" rx="38" ry="39.1515" fill="white"/>
<ellipse cx="261.524" cy="341.599" rx="24.4088" ry="25.4522" fill="#111111"/>
<ellipse cx="360" cy="341.152" rx="38" ry="39.1515" fill="white"/>
<ellipse cx="359.158" cy="341.599" rx="24.4088" ry="25.4522" fill="#111111"/>
</svg>
