<svg xmlns="http://www.w3.org/2000/svg" width="361" height="513" viewBox="0 0 361 513">
  <g id="owl" transform="translate(-75.5 0.5)">
    <g id="Group_2" data-name="Group 2">
      <g id="Group_1" data-name="Group 1">
        <path id="Path_1" data-name="Path 1" d="M336,472H262.273a333.271,333.271,0,0,0,76.487-57.24A329.829,329.829,0,0,0,436,180C436,81.108,355.575,0,256,0,159.8,0,76,77.57,76,180V492a20,20,0,0,0,20,20H336a20,20,0,0,0,0-40ZM256,40a139.463,139.463,0,0,1,94.822,37.1A99.967,99.967,0,0,0,256,116.066,99.967,99.967,0,0,0,161.178,77.1,139.463,139.463,0,0,1,256,40ZM116.452,168.766A59.992,59.992,0,0,1,236,176a20,20,0,0,0,40,0,59.992,59.992,0,0,1,119.548-7.234C401.554,244.048,338.875,316,256,316,173.716,316,110.4,244.606,116.452,168.766ZM116,289a179.7,179.7,0,0,0,242.061,35.184,293.509,293.509,0,0,1-47.586,62.293A289.915,289.915,0,0,1,116,471.76Z" fill="#fff" stroke="#000" stroke-width="1"/>
        <path id="Path_2" data-name="Path 2" d="M251.05,280.883a7,7,0,0,0,9.9,0l20.933-20.933a7,7,0,0,0-4.95-11.95H235.068a7,7,0,0,0-4.95,11.95Z" fill="#fff" stroke="#000" stroke-width="1"/>
      </g>
    </g>
  </g>
</svg>
