<?xml version="1.0" standalone="no"?>
<!DOCTYPE svg PUBLIC "-//W3C//DTD SVG 20010904//EN"
 "http://www.w3.org/TR/2001/REC-SVG-20010904/DTD/svg10.dtd">
<svg version="1.0" xmlns="http://www.w3.org/2000/svg"
 width="700.000000pt" height="700.000000pt" viewBox="0 0 700.000000 700.000000"
 preserveAspectRatio="xMidYMid meet">
<metadata>
Created by potrace 1.14, written by Peter Selinger 2001-2017
</metadata>
<g transform="translate(0.000000,700.000000) scale(0.100000,-0.100000)"
fill="#000000" stroke="none">
<path d="M3240 6989 c-1013 -77 -1935 -584 -2549 -1403 -604 -805 -825 -1850
-605 -2851 97 -440 297 -890 557 -1255 211 -295 522 -610 802 -812 950 -684
2157 -853 3258 -454 476 173 896 443 1268 815 292 293 486 561 665 921 566
1140 462 2519 -269 3555 -161 227 -382 473 -582 645 -705 606 -1624 909 -2545
839z m1883 -2018 c206 -72 346 -251 441 -563 80 -262 115 -608 86 -848 -78
-632 -602 -1484 -945 -1535 -61 -10 -108 9 -153 60 -50 56 -58 80 -132 369
-116 456 -228 817 -319 1035 -76 182 -161 291 -225 291 -78 0 -128 -78 -251
-390 -83 -212 -111 -268 -158 -317 -59 -63 -153 -39 -245 62 -51 55 -83 104
-203 308 -68 116 -124 177 -163 177 -113 0 -217 -316 -366 -1115 -45 -241 -59
-283 -114 -335 -36 -34 -39 -35 -119 -35 -73 1 -89 4 -147 34 -181 93 -431
343 -560 560 -82 138 -159 373 -197 600 -14 82 -18 163 -18 356 0 239 1 255
27 356 136 537 541 804 1023 676 50 -14 145 -41 213 -61 172 -51 455 -121 597
-148 96 -18 157 -22 305 -23 260 0 263 1 562 193 221 143 441 247 615 293 154
40 334 40 446 0z m-1922 -2046 c92 -31 161 -121 175 -226 16 -119 -71 -249
-189 -284 -167 -48 -327 76 -327 255 0 186 170 313 341 255z m670 0 c92 -31
161 -121 175 -226 16 -119 -71 -249 -189 -284 -167 -48 -326 76 -327 255 0
185 171 313 341 255z"/>
<path d="M3060 2833 c-71 -27 -114 -100 -108 -180 8 -92 73 -153 163 -153 66
0 111 29 143 90 59 114 -22 252 -145 249 -21 0 -45 -3 -53 -6z"/>
<path d="M3720 2829 c-63 -25 -100 -85 -100 -162 0 -125 124 -204 237 -150 67
31 106 126 83 200 -31 95 -132 147 -220 112z"/>
</g>
</svg>
